<?xml version="1.0" encoding="utf-8"?>
<!-- Generator: Adobe Illustrator 23.1.1, SVG Export Plug-In . SVG Version: 6.00 Build 0)  -->
<svg version="1.1" id="Layer_1" xmlns="http://www.w3.org/2000/svg" xmlns:xlink="http://www.w3.org/1999/xlink" x="0px" y="0px"
	 viewBox="0 0 735.1 87.8" style="enable-background:new 0 0 735.1 87.8;" xml:space="preserve">
<style type="text/css">
	.st0{fill:#BA2025;}
	.st1{fill:#282828;}
	.st2{enable-background:new    ;}
	.st3{font-family:'MyriadPro-Regular';}
	.st4{font-size:7.27px;}
</style>
<title>LOGO-1</title>
<path class="st0" d="M50.5,76.4c-24.1-4.8-34.9-12.5-32.4-23c2.2-7.4,11.5-13.8,28-18.9c14.2-4.5,28.8-8,43.6-10.4
	c-23.9-0.9-44.5,1.4-62,6.8c-9.6,2.6-19,6.2-28,10.6v41.6c0,2.9,2.4,5.3,5.3,5.3c0,0,0,0,0,0h144.4c2.9,0,5.3-2.4,5.3-5.3V65.8
	c-1.5,0.7-3.1,1.3-4.8,2C115.2,79.4,82.1,82.3,50.5,76.4z"/>
<path class="st1" d="M91.2,9.9c21.8,2.5,35.3,7.5,40.4,15.2c6.1,10.7-4.5,19.9-32.2,27.5c-16.1,3.6-27.5,6-34.4,7
	c8.8,2.7,21.7,3.1,38.7,1.1c16.8-2.2,33.8-7.7,51-16.7V5.1c0-2.9-2.4-5.3-5.3-5.3H5c-2.9,0-5.3,2.3-5.3,5.2c0,0,0,0,0,0v17.3
	c7.5-3.1,15.2-5.5,23.1-7.3C45.1,9.2,68.2,7.5,91.2,9.9z"/>
<g class="st2">
	<path class="st1" d="M184.2,44.3V17.8h10.4c8.8,0,13.1,4.2,13.1,12.5c0,9.3-4.4,14-13.1,14H184.2z M194.5,40.1
		c5.5,0,8.2-3.2,8.2-9.7c0-5.5-2.7-8.3-8.2-8.3h-5.5v18H194.5z"/>
	<path class="st1" d="M209.5,17.8h5.3l7.4,12.8l7-12.8h5.1l-9.7,17.2v9.3h-4.9v-9.3L209.5,17.8z"/>
	<path class="st1" d="M235.9,44.3V17.8h4.9l14,19.3V17.8h4.7v26.5h-4.9l-14-19.7v19.7H235.9z"/>
	<path class="st1" d="M267.8,44.3h-5L274,17.8h5.3l11.5,26.5h-5.3l-3-7.2h-8.8l1.7-4.3h5.3l-4.2-9.9L267.8,44.3z"/>
	<path class="st1" d="M294,44.3V17.8h5.1l9,20.1l8.8-20.1h4.9v26.5h-4.5V25.9L310,44.3h-4.2l-7.3-18.4v18.4H294z"/>
	<path class="st1" d="M332.2,17.8v26.5h-4.9V17.8H332.2z"/>
	<path class="st1" d="M358.8,43.2c-2.3,0.9-4.9,1.3-7.8,1.3c-9.5,0-14.2-4.6-14.2-13.8c0-8.7,4.7-13,14.2-13c2.9,0,5.5,0.4,7.8,1.3
		v4.4c-2.3-1-4.8-1.5-7.4-1.5c-6.4,0-9.5,2.9-9.5,8.8c0,6.4,3.2,9.5,9.5,9.5c2.7,0,5.1-0.5,7.4-1.5V43.2z"/>
	<path class="st1" d="M392.9,43.2c-2.3,0.9-4.9,1.3-7.8,1.3c-9.5,0-14.2-4.6-14.2-13.8c0-8.7,4.7-13,14.2-13c2.9,0,5.5,0.4,7.8,1.3
		v4.4c-2.3-1-4.8-1.5-7.4-1.5c-6.4,0-9.5,2.9-9.5,8.8c0,6.4,3.2,9.5,9.5,9.5c2.7,0,5.1-0.5,7.4-1.5V43.2z"/>
	<path class="st1" d="M396.6,31.1c0-9,4.4-13.5,13.3-13.5c8.7,0,13.1,4.5,13.1,13.5c0,8.9-4.4,13.4-13.1,13.4
		C401.4,44.5,397,40,396.6,31.1z M409.9,40.2c5.3,0,8-3.1,8-9.2c0-6.1-2.7-9.1-8-9.1c-5.5,0-8.2,3-8.2,9.1
		C401.7,37.2,404.4,40.2,409.9,40.2z"/>
	<path class="st1" d="M427.6,44.3V17.8h5.1l9,20.1l8.8-20.1h4.9v26.5h-4.5V25.9l-7.2,18.4h-4.2l-7.3-18.4v18.4H427.6z"/>
	<path class="st1" d="M460.9,44.3V17.8h5.1l9,20.1l8.8-20.1h4.9v26.5h-4.5V25.9l-7.2,18.4h-4.2l-7.3-18.4v18.4H460.9z"/>
	<path class="st1" d="M494.2,33.9V17.8h4.9v16.1c0,4.2,2.2,6.3,6.5,6.3c4.3,0,6.5-2.1,6.5-6.3V17.8h4.9v16.1
		c0,7.1-3.8,10.6-11.4,10.6C498,44.5,494.2,41,494.2,33.9z"/>
	<path class="st1" d="M522.5,44.3V17.8h4.9l14,19.3V17.8h4.7v26.5h-4.9l-14-19.7v19.7H522.5z"/>
	<path class="st1" d="M556.6,17.8v26.5h-4.9V17.8H556.6z"/>
	<path class="st1" d="M583.2,43.2c-2.3,0.9-4.9,1.3-7.8,1.3c-9.5,0-14.2-4.6-14.2-13.8c0-8.7,4.8-13,14.2-13c2.9,0,5.5,0.4,7.8,1.3
		v4.4c-2.3-1-4.8-1.5-7.4-1.5c-6.4,0-9.5,2.9-9.5,8.8c0,6.4,3.2,9.5,9.5,9.5c2.7,0,5.1-0.5,7.4-1.5V43.2z"/>
</g>
<g class="st2">
	<path class="st1" d="M590.5,44.3h-5l11.2-26.5h5.3l11.5,26.5h-5.3l-3-7.2h-8.8l1.7-4.3h5.3l-4.2-9.9L590.5,44.3z"/>
</g>
<g class="st2">
	<path class="st1" d="M631.2,17.8v4.3h-7.6v22.2h-4.9V22.1h-7.6v-4.3H631.2z"/>
	<path class="st1" d="M638.9,17.8v26.5H634V17.8H638.9z"/>
	<path class="st1" d="M643.6,31.1c0-9,4.4-13.5,13.3-13.5c8.7,0,13.1,4.5,13.1,13.5c0,8.9-4.4,13.4-13.1,13.4
		C648.4,44.5,644,40,643.6,31.1z M656.8,40.2c5.3,0,8-3.1,8-9.2c0-6.1-2.7-9.1-8-9.1c-5.5,0-8.2,3-8.2,9.1
		C648.6,37.2,651.4,40.2,656.8,40.2z"/>
	<path class="st1" d="M674.6,44.3V17.8h4.9l14,19.3V17.8h4.7v26.5h-4.9l-14-19.7v19.7H674.6z"/>
	<path class="st1" d="M703.2,43.2v-4.4c2.7,1,5.6,1.5,9,1.5c4.1,0,6.1-1.4,6.1-4.1c0-2-1.2-3-3.7-3h-4.1c-5.4,0-8.1-2.5-8.1-7.4
		c0-5.4,3.9-8.1,11.6-8.1c3,0,5.8,0.4,8.4,1.3v4.4c-2.7-1-5.5-1.5-8.4-1.5c-4.4,0-6.7,1.3-6.7,3.9c0,2,1.1,3,3.2,3h4.1
		c5.8,0,8.6,2.5,8.6,7.4c0,5.6-3.7,8.3-11,8.3C708.9,44.5,705.9,44.1,703.2,43.2z"/>
</g>
<text transform="matrix(1 0 0 1 725.96 44.31)" class="st1 st3 st4">TM</text>
<g class="st2">
	<path class="st1" d="M198.3,65.2l-0.1-0.2c0.2-0.5,0.6-1.1,1-2c0.5-0.8,1-1.7,1.5-2.6h1.7c-0.8,1.8-1.4,3.4-1.9,4.8H198.3z
		 M202.2,65.2l-0.1-0.2c0.5-1.2,1.4-2.7,2.5-4.6h1.7c-0.8,1.8-1.4,3.4-1.9,4.8H202.2z"/>
	<path class="st1" d="M213.6,62.2c-1,0-1.9,0.3-2.6,0.9c-0.8,0.6-1.4,1.4-1.8,2.5c-0.5,1.1-0.7,2.3-0.7,3.6c0,1.1,0.3,2,0.8,2.6
		c0.5,0.6,1.3,0.9,2.3,0.9c0.9,0,1.9-0.2,3.1-0.6v2c-1.1,0.4-2.3,0.6-3.6,0.6c-1.6,0-2.8-0.5-3.7-1.4s-1.3-2.3-1.3-4
		c0-1.7,0.3-3.2,1-4.6s1.6-2.5,2.7-3.2c1.1-0.7,2.4-1.1,3.8-1.1c1.4,0,2.6,0.3,3.7,0.9l-0.9,1.9c-0.4-0.2-0.8-0.4-1.3-0.6
		C214.6,62.2,214.1,62.2,213.6,62.2z"/>
	<path class="st1" d="M226.7,67.8c0,1.3-0.2,2.5-0.7,3.5c-0.5,1.1-1.1,1.9-1.9,2.4c-0.8,0.6-1.7,0.8-2.8,0.8c-1.2,0-2.2-0.4-2.9-1.1
		c-0.7-0.7-1.1-1.7-1.1-3c0-1.3,0.2-2.4,0.7-3.5s1.1-1.9,1.9-2.5s1.8-0.9,2.8-0.9c1.2,0,2.2,0.4,2.9,1.1
		C226.4,65.5,226.7,66.5,226.7,67.8z M224.5,67.7c0-0.7-0.2-1.2-0.5-1.6c-0.3-0.4-0.8-0.6-1.3-0.6c-0.6,0-1.1,0.2-1.6,0.7
		s-0.8,1.1-1.1,1.9c-0.3,0.8-0.4,1.6-0.4,2.5c0,0.7,0.2,1.2,0.5,1.6c0.3,0.4,0.8,0.6,1.4,0.6c0.6,0,1.1-0.2,1.5-0.6
		c0.5-0.4,0.8-1,1.1-1.8C224.3,69.5,224.5,68.6,224.5,67.7z"/>
	<path class="st1" d="M235.3,63.6c1.4,0,2.2,0.7,2.4,2.2h0.1c0.5-0.7,1-1.3,1.6-1.7c0.6-0.4,1.2-0.6,1.9-0.6c0.8,0,1.5,0.2,1.9,0.7
		s0.7,1.2,0.7,2.1c0,0.4-0.1,1-0.2,1.7l-1.3,6.2h-2.2l1.4-6.4c0.1-0.6,0.2-1,0.2-1.3c0-0.8-0.4-1.2-1.2-1.2c-0.7,0-1.3,0.4-1.9,1.2
		c-0.6,0.8-1,1.8-1.3,3.1l-1,4.6h-2.2l1.4-6.4c0.1-0.5,0.2-0.9,0.2-1.2c0-0.9-0.4-1.3-1.1-1.3c-0.7,0-1.3,0.4-1.9,1.2
		c-0.6,0.8-1,1.9-1.3,3.2l-0.9,4.5h-2.3l2.3-10.6h1.8l-0.2,2h0.1C232.9,64.3,234.1,63.6,235.3,63.6z"/>
	<path class="st1" d="M252.7,63.6c1.4,0,2.2,0.7,2.4,2.2h0.1c0.5-0.7,1-1.3,1.6-1.7c0.6-0.4,1.2-0.6,1.9-0.6c0.8,0,1.5,0.2,1.9,0.7
		s0.7,1.2,0.7,2.1c0,0.4-0.1,1-0.2,1.7l-1.3,6.2h-2.2l1.4-6.4c0.1-0.6,0.2-1,0.2-1.3c0-0.8-0.4-1.2-1.2-1.2c-0.7,0-1.3,0.4-1.9,1.2
		c-0.6,0.8-1,1.8-1.3,3.1l-1,4.6h-2.2l1.4-6.4c0.1-0.5,0.2-0.9,0.2-1.2c0-0.9-0.4-1.3-1.1-1.3c-0.7,0-1.3,0.4-1.9,1.2
		c-0.6,0.8-1,1.9-1.3,3.2l-0.9,4.5h-2.3l2.3-10.6h1.8l-0.2,2h0.1C250.3,64.3,251.4,63.6,252.7,63.6z"/>
	<path class="st1" d="M267.2,63.8l-1.2,5.8c-0.2,0.9-0.3,1.5-0.3,1.8c0,0.8,0.4,1.3,1.2,1.3c0.5,0,0.9-0.2,1.4-0.5s0.9-0.9,1.2-1.6
		c0.4-0.7,0.6-1.5,0.8-2.4l0.9-4.5h2.2l-2.2,10.6h-1.8l0.2-2h-0.1c-0.5,0.7-1.1,1.3-1.6,1.6c-0.6,0.3-1.2,0.5-1.8,0.5
		c-0.9,0-1.5-0.2-2-0.7c-0.5-0.5-0.7-1.2-0.7-2.1c0-0.4,0-0.8,0.1-1.2c0.1-0.4,0.2-0.8,0.2-1.2l1.2-5.6H267.2z"/>
	<path class="st1" d="M280.6,74.4L282,68c0.1-0.6,0.2-1,0.2-1.3c0-0.8-0.4-1.3-1.2-1.3c-0.5,0-0.9,0.2-1.4,0.5s-0.8,0.9-1.2,1.6
		c-0.4,0.7-0.6,1.5-0.8,2.3l-0.9,4.5h-2.3l2.3-10.6h1.8l-0.2,2h0.1c0.5-0.8,1.1-1.3,1.6-1.6c0.6-0.3,1.2-0.5,1.8-0.5
		c0.9,0,1.5,0.2,2,0.7c0.5,0.5,0.7,1.2,0.7,2.1c0,0.4-0.1,1-0.2,1.7l-1.3,6.2H280.6z"/>
	<path class="st1" d="M288.2,74.4h-2.3l2.3-10.6h2.2L288.2,74.4z M288.6,61.2c0-0.4,0.1-0.8,0.4-1.1c0.2-0.3,0.6-0.4,1.1-0.4
		c0.3,0,0.6,0.1,0.8,0.3c0.2,0.2,0.3,0.4,0.3,0.8c0,0.5-0.1,0.8-0.4,1.1c-0.3,0.3-0.6,0.4-1,0.4c-0.3,0-0.6-0.1-0.8-0.2
		C288.7,61.8,288.6,61.6,288.6,61.2z"/>
	<path class="st1" d="M295.7,74.6c-1.2,0-2.2-0.3-2.9-1s-1-1.6-1-2.9c0-1.3,0.2-2.5,0.7-3.6c0.5-1.1,1.1-1.9,2-2.5
		c0.8-0.6,1.8-0.9,2.9-0.9c1,0,2,0.2,2.8,0.6l-0.7,1.8c-0.8-0.3-1.5-0.5-2.1-0.5c-1,0-1.8,0.5-2.4,1.5s-1,2.2-1,3.6
		c0,0.7,0.2,1.3,0.5,1.6c0.4,0.4,0.9,0.6,1.5,0.6c0.5,0,0.9-0.1,1.3-0.2c0.4-0.1,0.8-0.3,1.2-0.5v1.9
		C297.7,74.3,296.7,74.6,295.7,74.6z"/>
	<path class="st1" d="M303.8,74.6c-0.9,0-1.6-0.3-2.1-1c-0.5-0.6-0.8-1.6-0.8-2.7c0-1.3,0.2-2.5,0.7-3.6s1.1-2,1.8-2.7
		c0.8-0.7,1.6-1,2.6-1c0.6,0,1.1,0.1,1.6,0.4c0.4,0.3,0.8,0.7,1,1.3h0.1l0.6-1.5h1.7l-2.3,10.6H307l0.2-1.7h-0.1
		C306.1,73.9,305,74.6,303.8,74.6z M304.6,72.7c0.5,0,1-0.2,1.5-0.7c0.5-0.5,0.9-1.2,1.2-2c0.3-0.8,0.5-1.7,0.5-2.7
		c0-0.6-0.1-1-0.4-1.4s-0.7-0.5-1.2-0.5c-0.5,0-1.1,0.2-1.5,0.7s-0.9,1.2-1.1,2c-0.3,0.8-0.4,1.7-0.4,2.6c0,0.6,0.1,1.1,0.4,1.5
		C303.8,72.6,304.1,72.7,304.6,72.7z"/>
	<path class="st1" d="M315.6,72.7c0.4,0,0.9-0.1,1.4-0.3v1.7c-0.2,0.1-0.5,0.2-0.9,0.3c-0.4,0.1-0.8,0.1-1.1,0.1
		c-1.7,0-2.6-0.8-2.6-2.4c0-0.4,0.1-0.8,0.2-1.3l1.2-5.4h-1.5l0.2-1.1l1.8-0.8l1.2-2.2h1.4l-0.5,2.3h2.7l-0.4,1.7h-2.6l-1.2,5.5
		c-0.1,0.4-0.1,0.6-0.1,0.9c0,0.3,0.1,0.5,0.2,0.7S315.3,72.7,315.6,72.7z"/>
	<path class="st1" d="M321.2,74.4h-2.3l2.3-10.6h2.2L321.2,74.4z M321.6,61.2c0-0.4,0.1-0.8,0.4-1.1c0.2-0.3,0.6-0.4,1.1-0.4
		c0.3,0,0.6,0.1,0.8,0.3c0.2,0.2,0.3,0.4,0.3,0.8c0,0.5-0.1,0.8-0.4,1.1c-0.3,0.3-0.6,0.4-1,0.4c-0.3,0-0.6-0.1-0.8-0.2
		C321.7,61.8,321.6,61.6,321.6,61.2z"/>
	<path class="st1" d="M334.1,67.8c0,1.3-0.2,2.5-0.7,3.5c-0.5,1.1-1.1,1.9-1.9,2.4c-0.8,0.6-1.7,0.8-2.8,0.8c-1.2,0-2.2-0.4-2.9-1.1
		c-0.7-0.7-1.1-1.7-1.1-3c0-1.3,0.2-2.4,0.7-3.5s1.1-1.9,1.9-2.5s1.8-0.9,2.8-0.9c1.2,0,2.2,0.4,2.9,1.1
		C333.8,65.5,334.1,66.5,334.1,67.8z M331.9,67.7c0-0.7-0.2-1.2-0.5-1.6c-0.3-0.4-0.8-0.6-1.3-0.6c-0.6,0-1.1,0.2-1.6,0.7
		s-0.8,1.1-1.1,1.9c-0.3,0.8-0.4,1.6-0.4,2.5c0,0.7,0.2,1.2,0.5,1.6c0.3,0.4,0.8,0.6,1.4,0.6c0.6,0,1.1-0.2,1.5-0.6
		c0.5-0.4,0.8-1,1.1-1.8C331.8,69.5,331.9,68.6,331.9,67.7z"/>
	<path class="st1" d="M341.8,74.4l1.4-6.4c0.1-0.6,0.2-1,0.2-1.3c0-0.8-0.4-1.3-1.2-1.3c-0.5,0-0.9,0.2-1.4,0.5s-0.8,0.9-1.2,1.6
		c-0.4,0.7-0.6,1.5-0.8,2.3l-0.9,4.5h-2.3l2.3-10.6h1.8l-0.2,2h0.1c0.5-0.8,1.1-1.3,1.6-1.6c0.6-0.3,1.2-0.5,1.8-0.5
		c0.9,0,1.5,0.2,2,0.7c0.5,0.5,0.7,1.2,0.7,2.1c0,0.4-0.1,1-0.2,1.7l-1.3,6.2H341.8z"/>
	<path class="st1" d="M360.6,70.3c0,1.3-0.5,2.4-1.4,3.1c-0.9,0.8-2.2,1.1-3.8,1.1c-1.3,0-2.4-0.2-3.3-0.7v-2.1
		c1.1,0.6,2.2,0.9,3.3,0.9c0.9,0,1.6-0.2,2.1-0.6c0.5-0.4,0.8-0.9,0.8-1.6c0-0.4-0.1-0.8-0.4-1.2c-0.3-0.3-0.8-0.8-1.6-1.3
		c-0.7-0.4-1.2-0.8-1.5-1.2c-0.3-0.3-0.6-0.7-0.7-1.2c-0.2-0.4-0.3-0.9-0.3-1.4c0-0.8,0.2-1.5,0.6-2.2c0.4-0.6,0.9-1.1,1.7-1.5
		s1.5-0.5,2.4-0.5c1.3,0,2.5,0.3,3.6,0.9l-0.8,1.8c-1-0.5-2-0.7-2.8-0.7c-0.7,0-1.3,0.2-1.7,0.6c-0.4,0.4-0.6,0.9-0.6,1.5
		c0,0.3,0,0.6,0.1,0.8c0.1,0.2,0.2,0.4,0.4,0.6s0.6,0.5,1.3,0.9c1,0.6,1.7,1.2,2,1.8C360.4,68.9,360.6,69.5,360.6,70.3z"/>
	<path class="st1" d="M372.1,67.8c0,1.3-0.2,2.5-0.7,3.5c-0.5,1.1-1.1,1.9-1.9,2.4c-0.8,0.6-1.7,0.8-2.8,0.8c-1.2,0-2.2-0.4-2.9-1.1
		c-0.7-0.7-1.1-1.7-1.1-3c0-1.3,0.2-2.4,0.7-3.5s1.1-1.9,1.9-2.5s1.8-0.9,2.8-0.9c1.2,0,2.2,0.4,2.9,1.1
		C371.7,65.5,372.1,66.5,372.1,67.8z M369.8,67.7c0-0.7-0.2-1.2-0.5-1.6c-0.3-0.4-0.8-0.6-1.3-0.6c-0.6,0-1.1,0.2-1.6,0.7
		s-0.8,1.1-1.1,1.9c-0.3,0.8-0.4,1.6-0.4,2.5c0,0.7,0.2,1.2,0.5,1.6c0.3,0.4,0.8,0.6,1.4,0.6c0.6,0,1.1-0.2,1.5-0.6
		c0.5-0.4,0.8-1,1.1-1.8C369.7,69.5,369.8,68.6,369.8,67.7z"/>
	<path class="st1" d="M375.7,74.4h-2.2l3.2-14.9h2.2L375.7,74.4z"/>
	<path class="st1" d="M383.2,63.8l-1.2,5.8c-0.2,0.9-0.3,1.5-0.3,1.8c0,0.8,0.4,1.3,1.2,1.3c0.5,0,0.9-0.2,1.4-0.5s0.9-0.9,1.2-1.6
		s0.6-1.5,0.8-2.4l0.9-4.5h2.2l-2.2,10.6h-1.8l0.2-2h-0.1c-0.5,0.7-1.1,1.3-1.6,1.6c-0.6,0.3-1.2,0.5-1.8,0.5c-0.9,0-1.5-0.2-2-0.7
		c-0.5-0.5-0.7-1.2-0.7-2.1c0-0.4,0-0.8,0.1-1.2s0.2-0.8,0.2-1.2l1.2-5.6H383.2z"/>
	<path class="st1" d="M394.2,72.7c0.4,0,0.9-0.1,1.4-0.3v1.7c-0.2,0.1-0.5,0.2-0.9,0.3c-0.4,0.1-0.8,0.1-1.1,0.1
		c-1.7,0-2.6-0.8-2.6-2.4c0-0.4,0.1-0.8,0.2-1.3l1.2-5.4h-1.5l0.2-1.1l1.8-0.8l1.2-2.2h1.4l-0.5,2.3h2.7l-0.4,1.7h-2.6l-1.2,5.5
		c-0.1,0.4-0.1,0.6-0.1,0.9c0,0.3,0.1,0.5,0.2,0.7S393.9,72.7,394.2,72.7z"/>
	<path class="st1" d="M399.8,74.4h-2.3l2.3-10.6h2.2L399.8,74.4z M400.2,61.2c0-0.4,0.1-0.8,0.4-1.1c0.2-0.3,0.6-0.4,1-0.4
		c0.3,0,0.6,0.1,0.8,0.3c0.2,0.2,0.3,0.4,0.3,0.8c0,0.5-0.1,0.8-0.4,1.1c-0.3,0.3-0.6,0.4-1,0.4c-0.3,0-0.6-0.1-0.8-0.2
		C400.3,61.8,400.2,61.6,400.2,61.2z"/>
	<path class="st1" d="M412.8,67.8c0,1.3-0.2,2.5-0.7,3.5c-0.5,1.1-1.1,1.9-1.9,2.4c-0.8,0.6-1.7,0.8-2.8,0.8c-1.2,0-2.2-0.4-2.9-1.1
		c-0.7-0.7-1.1-1.7-1.1-3c0-1.3,0.2-2.4,0.7-3.5s1.1-1.9,1.9-2.5s1.8-0.9,2.8-0.9c1.2,0,2.2,0.4,2.9,1.1
		C412.4,65.5,412.8,66.5,412.8,67.8z M410.5,67.7c0-0.7-0.2-1.2-0.5-1.6c-0.3-0.4-0.8-0.6-1.3-0.6c-0.6,0-1.1,0.2-1.6,0.7
		s-0.8,1.1-1.1,1.9c-0.3,0.8-0.4,1.6-0.4,2.5c0,0.7,0.2,1.2,0.5,1.6c0.3,0.4,0.8,0.6,1.4,0.6c0.6,0,1.1-0.2,1.5-0.6
		c0.5-0.4,0.8-1,1.1-1.8C410.4,69.5,410.5,68.6,410.5,67.7z"/>
	<path class="st1" d="M420.4,74.4l1.4-6.4c0.1-0.6,0.2-1,0.2-1.3c0-0.8-0.4-1.3-1.2-1.3c-0.5,0-0.9,0.2-1.4,0.5
		c-0.4,0.4-0.8,0.9-1.2,1.6c-0.4,0.7-0.6,1.5-0.8,2.3l-0.9,4.5h-2.3l2.3-10.6h1.8l-0.2,2h0.1c0.5-0.8,1.1-1.3,1.6-1.6
		s1.2-0.5,1.8-0.5c0.9,0,1.5,0.2,2,0.7c0.5,0.5,0.7,1.2,0.7,2.1c0,0.4-0.1,1-0.2,1.7l-1.3,6.2H420.4z"/>
	<path class="st1" d="M432.7,71.1c0,1.1-0.4,2-1.1,2.5c-0.8,0.6-1.8,0.9-3.1,0.9c-1.2,0-2.2-0.2-3.1-0.6V72c1,0.6,2,0.9,3,0.9
		c0.6,0,1.1-0.1,1.5-0.4c0.4-0.3,0.6-0.6,0.6-1c0-0.3-0.1-0.6-0.3-0.8s-0.7-0.5-1.4-0.9c-0.8-0.4-1.4-0.9-1.7-1.3s-0.5-1-0.5-1.6
		c0-1,0.3-1.8,1-2.3c0.7-0.6,1.6-0.8,2.8-0.8c1.2,0,2.3,0.3,3.3,0.8l-0.7,1.7c-0.9-0.5-1.7-0.7-2.5-0.7c-0.5,0-0.8,0.1-1.1,0.3
		s-0.4,0.5-0.4,0.9c0,0.3,0.1,0.5,0.3,0.8s0.6,0.5,1.3,0.9c0.7,0.4,1.1,0.7,1.4,1c0.3,0.3,0.5,0.6,0.6,0.9S432.7,70.7,432.7,71.1z"
		/>
	<path class="st1" d="M442.9,74.6c-0.9,0-1.6-0.3-2.1-1c-0.5-0.6-0.8-1.6-0.8-2.7c0-1.3,0.2-2.5,0.7-3.6s1.1-2,1.8-2.7
		c0.8-0.7,1.6-1,2.6-1c0.6,0,1.1,0.1,1.6,0.4c0.4,0.3,0.8,0.7,1,1.3h0.1l0.6-1.5h1.7l-2.3,10.6h-1.7l0.2-1.7h-0.1
		C445.2,73.9,444.1,74.6,442.9,74.6z M443.7,72.7c0.5,0,1-0.2,1.5-0.7c0.5-0.5,0.9-1.2,1.2-2c0.3-0.8,0.5-1.7,0.5-2.7
		c0-0.6-0.1-1-0.4-1.4c-0.3-0.3-0.7-0.5-1.2-0.5c-0.5,0-1.1,0.2-1.5,0.7s-0.9,1.2-1.1,2c-0.3,0.8-0.4,1.7-0.4,2.6
		c0,0.6,0.1,1.1,0.4,1.5C442.9,72.6,443.3,72.7,443.7,72.7z"/>
	<path class="st1" d="M454.8,72.7c0.4,0,0.9-0.1,1.4-0.3v1.7c-0.2,0.1-0.5,0.2-0.9,0.3c-0.4,0.1-0.8,0.1-1.1,0.1
		c-1.7,0-2.6-0.8-2.6-2.4c0-0.4,0.1-0.8,0.2-1.3l1.2-5.4h-1.5l0.2-1.1l1.8-0.8l1.2-2.2h1.4l-0.5,2.3h2.7l-0.4,1.7h-2.6l-1.2,5.5
		c-0.1,0.4-0.1,0.6-0.1,0.9c0,0.3,0.1,0.5,0.2,0.7S454.4,72.7,454.8,72.7z"/>
	<path class="st1" d="M467,72.7c0.4,0,0.9-0.1,1.4-0.3v1.7c-0.2,0.1-0.5,0.2-0.9,0.3c-0.4,0.1-0.8,0.1-1.1,0.1
		c-1.7,0-2.6-0.8-2.6-2.4c0-0.4,0.1-0.8,0.2-1.3l1.2-5.4h-1.5l0.2-1.1l1.8-0.8l1.2-2.2h1.4l-0.5,2.3h2.7l-0.4,1.7h-2.6l-1.2,5.5
		c-0.1,0.4-0.1,0.6-0.1,0.9c0,0.3,0.1,0.5,0.2,0.7S466.7,72.7,467,72.7z"/>
	<path class="st1" d="M476.6,74.4l1.4-6.4c0.1-0.6,0.2-1,0.2-1.2c0-0.9-0.4-1.3-1.2-1.3c-0.7,0-1.4,0.4-2,1.2s-1.1,1.9-1.4,3.3
		l-0.9,4.5h-2.3l3.2-14.9h2.2l-0.5,2.5c-0.2,0.8-0.4,1.7-0.7,2.8l-0.2,0.7h0.1c0.5-0.7,1.1-1.2,1.6-1.5c0.5-0.3,1.1-0.4,1.7-0.4
		c0.9,0,1.5,0.2,2,0.7c0.5,0.5,0.7,1.2,0.7,2.1c0,0.5-0.1,1-0.2,1.7l-1.3,6.2H476.6z"/>
	<path class="st1" d="M486.3,74.6c-1.3,0-2.2-0.4-2.9-1.1c-0.7-0.7-1.1-1.7-1.1-3c0-1.3,0.2-2.4,0.7-3.5c0.5-1.1,1.2-1.9,2-2.5
		c0.8-0.6,1.8-0.9,2.8-0.9c1,0,1.8,0.2,2.4,0.7c0.6,0.5,0.9,1.1,0.9,2c0,1.2-0.5,2.1-1.6,2.7c-1.1,0.7-2.6,1-4.5,1h-0.4l0,0.3v0.3
		c0,0.7,0.2,1.3,0.5,1.7c0.4,0.4,0.9,0.6,1.6,0.6c0.5,0,0.9-0.1,1.4-0.2s1-0.3,1.6-0.6v1.8c-0.6,0.3-1.2,0.5-1.7,0.6
		C487.5,74.5,486.9,74.6,486.3,74.6z M487.7,65.3c-0.6,0-1.2,0.3-1.7,0.8c-0.5,0.5-0.9,1.3-1.2,2.2h0.3c1.2,0,2.1-0.2,2.8-0.5
		c0.7-0.3,1-0.8,1-1.4c0-0.3-0.1-0.6-0.3-0.8C488.4,65.4,488.1,65.3,487.7,65.3z"/>
	<path class="st1" d="M505.6,70.3c0,1.3-0.5,2.4-1.4,3.1s-2.2,1.1-3.8,1.1c-1.3,0-2.4-0.2-3.3-0.7v-2.1c1.1,0.6,2.2,0.9,3.3,0.9
		c0.9,0,1.6-0.2,2.1-0.6c0.5-0.4,0.8-0.9,0.8-1.6c0-0.4-0.1-0.8-0.4-1.2c-0.3-0.3-0.8-0.8-1.6-1.3c-0.7-0.4-1.2-0.8-1.5-1.2
		c-0.3-0.3-0.6-0.7-0.7-1.2s-0.3-0.9-0.3-1.4c0-0.8,0.2-1.5,0.6-2.2c0.4-0.6,0.9-1.1,1.7-1.5c0.7-0.3,1.5-0.5,2.4-0.5
		c1.3,0,2.5,0.3,3.6,0.9l-0.8,1.8c-1-0.5-2-0.7-2.8-0.7c-0.7,0-1.3,0.2-1.7,0.6c-0.4,0.4-0.6,0.9-0.6,1.5c0,0.3,0,0.6,0.1,0.8
		c0.1,0.2,0.2,0.4,0.4,0.6c0.2,0.2,0.6,0.5,1.3,0.9c1,0.6,1.7,1.2,2,1.8C505.4,68.9,505.6,69.5,505.6,70.3z"/>
	<path class="st1" d="M512.4,74.6c-1.2,0-2-0.6-2.6-1.7h-0.1c0,0.6-0.1,1.2-0.2,1.8l-0.9,4.4h-2.2l3.2-15.3h1.8l-0.2,1.8h0.1
		c1-1.3,2.1-2,3.3-2c0.9,0,1.6,0.3,2.1,1c0.5,0.7,0.8,1.6,0.8,2.7c0,1.3-0.2,2.5-0.7,3.6c-0.4,1.1-1.1,2-1.8,2.6
		C514.1,74.2,513.3,74.6,512.4,74.6z M513.6,65.4c-0.5,0-1,0.3-1.5,0.8s-0.9,1.2-1.2,2c-0.3,0.8-0.5,1.7-0.5,2.6
		c0,0.6,0.1,1.1,0.4,1.4c0.3,0.3,0.7,0.5,1.3,0.5c0.5,0,1-0.2,1.5-0.7c0.5-0.5,0.8-1.2,1.1-2s0.4-1.7,0.4-2.6
		C515.1,66.1,514.6,65.4,513.6,65.4z"/>
	<path class="st1" d="M523.2,74.6c-1.3,0-2.2-0.4-2.9-1.1c-0.7-0.7-1.1-1.7-1.1-3c0-1.3,0.2-2.4,0.7-3.5c0.5-1.1,1.2-1.9,2-2.5
		c0.8-0.6,1.8-0.9,2.8-0.9c1,0,1.8,0.2,2.4,0.7c0.6,0.5,0.9,1.1,0.9,2c0,1.2-0.5,2.1-1.6,2.7c-1.1,0.7-2.6,1-4.5,1h-0.4l0,0.3v0.3
		c0,0.7,0.2,1.3,0.5,1.7c0.4,0.4,0.9,0.6,1.6,0.6c0.5,0,0.9-0.1,1.4-0.2s1-0.3,1.6-0.6v1.8c-0.6,0.3-1.2,0.5-1.7,0.6
		C524.4,74.5,523.8,74.6,523.2,74.6z M524.6,65.3c-0.6,0-1.2,0.3-1.7,0.8c-0.5,0.5-0.9,1.3-1.2,2.2h0.3c1.2,0,2.1-0.2,2.8-0.5
		s1-0.8,1-1.4c0-0.3-0.1-0.6-0.3-0.8S525,65.3,524.6,65.3z"/>
	<path class="st1" d="M533.5,74.6c-1.3,0-2.2-0.4-2.9-1.1c-0.7-0.7-1.1-1.7-1.1-3c0-1.3,0.2-2.4,0.7-3.5c0.5-1.1,1.2-1.9,2-2.5
		c0.8-0.6,1.8-0.9,2.8-0.9c1,0,1.8,0.2,2.4,0.7c0.6,0.5,0.9,1.1,0.9,2c0,1.2-0.5,2.1-1.6,2.7c-1.1,0.7-2.6,1-4.5,1h-0.4l0,0.3v0.3
		c0,0.7,0.2,1.3,0.5,1.7c0.4,0.4,0.9,0.6,1.6,0.6c0.5,0,0.9-0.1,1.4-0.2s1-0.3,1.6-0.6v1.8c-0.6,0.3-1.2,0.5-1.7,0.6
		C534.7,74.5,534.1,74.6,533.5,74.6z M534.9,65.3c-0.6,0-1.2,0.3-1.7,0.8c-0.5,0.5-0.9,1.3-1.2,2.2h0.3c1.2,0,2.1-0.2,2.8-0.5
		s1-0.8,1-1.4c0-0.3-0.1-0.6-0.3-0.8S535.3,65.3,534.9,65.3z"/>
	<path class="st1" d="M544.8,63.6c1.1,0,2,0.6,2.6,1.7h0.1c0.1-0.9,0.2-1.7,0.4-2.4l0.7-3.4h2.2l-3.2,14.9h-1.8l0.2-1.7h-0.1
		c-0.6,0.7-1.1,1.2-1.6,1.4c-0.5,0.3-1.1,0.4-1.7,0.4c-0.9,0-1.6-0.3-2.1-1c-0.5-0.6-0.8-1.6-0.8-2.7c0-1.3,0.2-2.5,0.7-3.7
		c0.5-1.1,1.1-2,1.8-2.6C543,63.9,543.9,63.6,544.8,63.6z M543.5,72.7c0.5,0,1-0.3,1.6-0.8c0.5-0.5,0.9-1.2,1.2-2
		c0.3-0.8,0.5-1.7,0.5-2.6c0-0.6-0.1-1-0.4-1.4c-0.3-0.3-0.7-0.5-1.3-0.5c-0.5,0-1,0.2-1.5,0.7c-0.5,0.5-0.8,1.2-1.1,2
		s-0.4,1.7-0.4,2.6C542,72.1,542.5,72.7,543.5,72.7z"/>
	<path class="st1" d="M565.7,67.8c0,1.3-0.2,2.5-0.7,3.5c-0.5,1.1-1.1,1.9-1.9,2.4c-0.8,0.6-1.7,0.8-2.8,0.8c-1.2,0-2.2-0.4-2.9-1.1
		c-0.7-0.7-1.1-1.7-1.1-3c0-1.3,0.2-2.4,0.7-3.5c0.5-1.1,1.1-1.9,1.9-2.5c0.8-0.6,1.8-0.9,2.8-0.9c1.2,0,2.2,0.4,2.9,1.1
		C565.3,65.5,565.7,66.5,565.7,67.8z M563.4,67.7c0-0.7-0.2-1.2-0.5-1.6c-0.3-0.4-0.8-0.6-1.3-0.6c-0.6,0-1.1,0.2-1.6,0.7
		s-0.8,1.1-1.1,1.9c-0.3,0.8-0.4,1.6-0.4,2.5c0,0.7,0.2,1.2,0.5,1.6c0.3,0.4,0.8,0.6,1.4,0.6c0.6,0,1.1-0.2,1.5-0.6
		c0.5-0.4,0.8-1,1.1-1.8C563.3,69.5,563.4,68.6,563.4,67.7z"/>
	<path class="st1" d="M565.8,79.1c-0.6,0-1-0.1-1.4-0.2V77c0.4,0.1,0.8,0.2,1.1,0.2c0.9,0,1.4-0.7,1.7-2l2.1-9.8h-1.7l0.2-1l1.9-0.7
		l0.2-0.9c0.3-1.3,0.7-2.2,1.3-2.7c0.6-0.5,1.4-0.8,2.4-0.8c0.7,0,1.4,0.1,2,0.4l-0.6,1.7c-0.5-0.2-0.9-0.3-1.3-0.3
		c-0.4,0-0.8,0.1-1.1,0.4c-0.3,0.3-0.5,0.7-0.6,1.3l-0.2,0.8h2.2l-0.4,1.7h-2.2l-2.1,10.1c-0.3,1.2-0.7,2.1-1.3,2.7
		C567.5,78.8,566.8,79.1,565.8,79.1z"/>
	<path class="st1" d="M583.9,66.8l4.1-6.4h2.5l-6,8.7l-1.1,5.2h-2.3l1.1-5.3l-2.3-8.7h2.3L583.9,66.8z"/>
	<path class="st1" d="M599.1,67.8c0,1.3-0.2,2.5-0.7,3.5c-0.5,1.1-1.1,1.9-1.9,2.4c-0.8,0.6-1.7,0.8-2.8,0.8c-1.2,0-2.2-0.4-2.9-1.1
		c-0.7-0.7-1.1-1.7-1.1-3c0-1.3,0.2-2.4,0.7-3.5c0.5-1.1,1.1-1.9,1.9-2.5c0.8-0.6,1.8-0.9,2.8-0.9c1.2,0,2.2,0.4,2.9,1.1
		C598.7,65.5,599.1,66.5,599.1,67.8z M596.8,67.7c0-0.7-0.2-1.2-0.5-1.6c-0.3-0.4-0.8-0.6-1.3-0.6c-0.6,0-1.1,0.2-1.6,0.7
		s-0.8,1.1-1.1,1.9c-0.3,0.8-0.4,1.6-0.4,2.5c0,0.7,0.2,1.2,0.5,1.6c0.3,0.4,0.8,0.6,1.4,0.6c0.6,0,1.1-0.2,1.5-0.6
		c0.5-0.4,0.8-1,1.1-1.8C596.7,69.5,596.8,68.6,596.8,67.7z"/>
	<path class="st1" d="M604.8,63.8l-1.2,5.8c-0.2,0.9-0.3,1.5-0.3,1.8c0,0.8,0.4,1.3,1.2,1.3c0.5,0,0.9-0.2,1.4-0.5s0.9-0.9,1.2-1.6
		c0.3-0.7,0.6-1.5,0.8-2.4l0.9-4.5h2.2l-2.2,10.6h-1.8l0.2-2h-0.1c-0.5,0.7-1.1,1.3-1.6,1.6c-0.6,0.3-1.2,0.5-1.8,0.5
		c-0.9,0-1.5-0.2-2-0.7c-0.5-0.5-0.7-1.2-0.7-2.1c0-0.4,0-0.8,0.1-1.2s0.2-0.8,0.2-1.2l1.2-5.6H604.8z"/>
	<path class="st1" d="M619.1,63.6c0.4,0,0.7,0,1,0.1l-0.5,2.1c-0.3-0.1-0.7-0.1-1-0.1c-0.8,0-1.5,0.4-2.1,1.1
		c-0.6,0.7-1.1,1.7-1.3,2.8l-1,4.8H612l2.3-10.6h1.8l-0.2,2h0.1c0.5-0.8,1.1-1.3,1.6-1.6S618.6,63.6,619.1,63.6z"/>
	<path class="st1" d="M632,60.4c1.4,0,2.5,0.3,3.2,0.8s1.1,1.3,1.1,2.4c0,0.9-0.3,1.7-0.8,2.3c-0.6,0.6-1.3,1-2.3,1.2v0.1
		c0.7,0.2,1.2,0.5,1.6,1c0.4,0.5,0.6,1.1,0.6,1.8c0,1.4-0.5,2.5-1.4,3.3c-1,0.8-2.3,1.2-4,1.2h-4.7l3-14H632z M627.9,72.5h2.1
		c0.9,0,1.7-0.2,2.2-0.6c0.5-0.4,0.8-1.1,0.8-1.9c0-0.6-0.2-1.1-0.6-1.4c-0.4-0.3-0.9-0.5-1.7-0.5h-1.9L627.9,72.5z M629.3,66.2h1.9
		c0.9,0,1.6-0.2,2.1-0.6c0.5-0.4,0.7-0.9,0.7-1.6c0-1.1-0.7-1.6-2.1-1.6h-1.7L629.3,66.2z"/>
	<path class="st1" d="M641.3,63.8l-1.2,5.8c-0.2,0.9-0.3,1.5-0.3,1.8c0,0.8,0.4,1.3,1.2,1.3c0.5,0,0.9-0.2,1.4-0.5s0.9-0.9,1.2-1.6
		c0.3-0.7,0.6-1.5,0.8-2.4l0.9-4.5h2.2l-2.2,10.6h-1.8l0.2-2h-0.1c-0.5,0.7-1.1,1.3-1.6,1.6c-0.6,0.3-1.2,0.5-1.8,0.5
		c-0.9,0-1.5-0.2-2-0.7c-0.5-0.5-0.7-1.2-0.7-2.1c0-0.4,0-0.8,0.1-1.2s0.2-0.8,0.2-1.2l1.2-5.6H641.3z"/>
	<path class="st1" d="M655.5,71.1c0,1.1-0.4,2-1.1,2.5c-0.8,0.6-1.8,0.9-3.1,0.9c-1.2,0-2.2-0.2-3.1-0.6V72c1,0.6,2,0.9,3,0.9
		c0.6,0,1.1-0.1,1.5-0.4s0.6-0.6,0.6-1c0-0.3-0.1-0.6-0.3-0.8s-0.7-0.5-1.4-0.9c-0.8-0.4-1.4-0.9-1.7-1.3s-0.5-1-0.5-1.6
		c0-1,0.3-1.8,1-2.3c0.7-0.6,1.6-0.8,2.8-0.8c1.2,0,2.3,0.3,3.3,0.8l-0.7,1.7c-0.9-0.5-1.7-0.7-2.5-0.7c-0.5,0-0.8,0.1-1.1,0.3
		c-0.3,0.2-0.4,0.5-0.4,0.9c0,0.3,0.1,0.5,0.3,0.8s0.6,0.5,1.3,0.9c0.7,0.4,1.1,0.7,1.4,1s0.5,0.6,0.6,0.9S655.5,70.7,655.5,71.1z"
		/>
	<path class="st1" d="M659.6,74.4h-2.3l2.3-10.6h2.2L659.6,74.4z M660,61.2c0-0.4,0.1-0.8,0.4-1.1c0.2-0.3,0.6-0.4,1.1-0.4
		c0.3,0,0.6,0.1,0.8,0.3s0.3,0.4,0.3,0.8c0,0.5-0.1,0.8-0.4,1.1c-0.3,0.3-0.6,0.4-1,0.4c-0.3,0-0.6-0.1-0.8-0.2
		C660.1,61.8,660,61.6,660,61.2z"/>
	<path class="st1" d="M668.9,74.4l1.4-6.4c0.1-0.6,0.2-1,0.2-1.3c0-0.8-0.4-1.3-1.2-1.3c-0.5,0-0.9,0.2-1.4,0.5s-0.8,0.9-1.2,1.6
		c-0.4,0.7-0.6,1.5-0.8,2.3l-0.9,4.5h-2.3l2.3-10.6h1.8l-0.2,2h0.1c0.5-0.8,1.1-1.3,1.6-1.6s1.2-0.5,1.8-0.5c0.9,0,1.5,0.2,2,0.7
		c0.5,0.5,0.7,1.2,0.7,2.1c0,0.4-0.1,1-0.2,1.7l-1.3,6.2H668.9z"/>
	<path class="st1" d="M678.7,74.6c-1.3,0-2.2-0.4-2.9-1.1c-0.7-0.7-1.1-1.7-1.1-3c0-1.3,0.2-2.4,0.7-3.5c0.5-1.1,1.2-1.9,2-2.5
		c0.8-0.6,1.8-0.9,2.8-0.9c1,0,1.8,0.2,2.4,0.7c0.6,0.5,0.9,1.1,0.9,2c0,1.2-0.5,2.1-1.6,2.7c-1.1,0.7-2.6,1-4.5,1H677l0,0.3v0.3
		c0,0.7,0.2,1.3,0.5,1.7c0.4,0.4,0.9,0.6,1.6,0.6c0.5,0,0.9-0.1,1.4-0.2s1-0.3,1.6-0.6v1.8c-0.6,0.3-1.2,0.5-1.7,0.6
		C679.9,74.5,679.3,74.6,678.7,74.6z M680.1,65.3c-0.6,0-1.2,0.3-1.7,0.8c-0.5,0.5-0.9,1.3-1.2,2.2h0.3c1.2,0,2.1-0.2,2.8-0.5
		s1-0.8,1-1.4c0-0.3-0.1-0.6-0.3-0.8S680.5,65.3,680.1,65.3z"/>
	<path class="st1" d="M691.5,71.1c0,1.1-0.4,2-1.1,2.5c-0.8,0.6-1.8,0.9-3.1,0.9c-1.2,0-2.2-0.2-3.1-0.6V72c1,0.6,2,0.9,3,0.9
		c0.6,0,1.1-0.1,1.5-0.4s0.6-0.6,0.6-1c0-0.3-0.1-0.6-0.3-0.8s-0.7-0.5-1.4-0.9c-0.8-0.4-1.4-0.9-1.7-1.3s-0.5-1-0.5-1.6
		c0-1,0.3-1.8,1-2.3c0.7-0.6,1.6-0.8,2.8-0.8c1.2,0,2.3,0.3,3.3,0.8l-0.7,1.7c-0.9-0.5-1.7-0.7-2.5-0.7c-0.5,0-0.8,0.1-1.1,0.3
		c-0.3,0.2-0.4,0.5-0.4,0.9c0,0.3,0.1,0.5,0.3,0.8s0.6,0.5,1.3,0.9c0.7,0.4,1.1,0.7,1.4,1s0.5,0.6,0.6,0.9S691.5,70.7,691.5,71.1z"
		/>
	<path class="st1" d="M700.3,71.1c0,1.1-0.4,2-1.1,2.5c-0.8,0.6-1.8,0.9-3.1,0.9c-1.2,0-2.2-0.2-3.1-0.6V72c1,0.6,2,0.9,3,0.9
		c0.6,0,1.1-0.1,1.5-0.4s0.6-0.6,0.6-1c0-0.3-0.1-0.6-0.3-0.8s-0.7-0.5-1.4-0.9c-0.8-0.4-1.4-0.9-1.7-1.3s-0.5-1-0.5-1.6
		c0-1,0.3-1.8,1-2.3c0.7-0.6,1.6-0.8,2.8-0.8c1.2,0,2.3,0.3,3.3,0.8l-0.7,1.7c-0.9-0.5-1.7-0.7-2.5-0.7c-0.5,0-0.8,0.1-1.1,0.3
		c-0.3,0.2-0.4,0.5-0.4,0.9c0,0.3,0.1,0.5,0.3,0.8s0.6,0.5,1.3,0.9c0.7,0.4,1.1,0.7,1.4,1s0.5,0.6,0.6,0.9S700.3,70.7,700.3,71.1z"
		/>
	<path class="st1" d="M706.9,60.4l0.1,0.2c-0.2,0.5-0.6,1.2-1.1,2.1c-0.5,0.9-1,1.7-1.5,2.5h-1.7c0.3-0.6,0.6-1.4,1-2.4
		c0.4-1,0.7-1.8,0.9-2.3H706.9z M710.8,60.4l0.1,0.2c-0.6,1.4-1.5,2.9-2.6,4.6h-1.7c0.3-0.7,0.7-1.6,1-2.5c0.4-0.9,0.7-1.7,0.9-2.3
		H710.8z"/>
</g>
</svg>
